<svg width="96" height="28" viewBox="0 0 96 28" fill="none" xmlns="http://www.w3.org/2000/svg">
<path fill-rule="evenodd" clip-rule="evenodd" d="M27.4627 15.0172C27.8493 10.7613 25.9949 6.91751 24.0009 4.67605C22.0326 2.46344 19.0889 0.408999 14.7566 0.0433016C12.6407 -0.13522 10.5487 0.252913 8.81096 0.937673C6.93396 1.67724 4.94721 3.01087 3.67265 4.48583C2.83885 5.45072 2.14589 6.32938 1.54987 7.54891C-0.218659 11.1669 -0.529169 15.1681 0.905937 18.9874C1.60066 20.8363 2.32005 21.8819 3.50297 23.3274C4.44027 24.4726 6.02903 25.6868 7.36928 26.3974C8.9417 27.231 10.638 27.7839 12.7462 27.9587C14.8616 28.134 17.0049 27.7355 18.7247 27.0539C20.5424 26.3336 21.7665 25.4383 22.9843 24.3752C23.2612 24.1335 23.6142 23.767 23.8529 23.4926C26.0039 21.0236 27.1443 18.5205 27.4627 15.0172Z" fill="#2086C9"/>
<path fill-rule="evenodd" clip-rule="evenodd" d="M5.81741 9.90172C6.40398 9.8756 7.60981 11.765 11.652 10.4814C12.5757 10.1881 13.4462 9.82255 14.3324 9.49163C16.3129 8.75207 18.174 8.00352 20.2659 8.81665C20.6527 8.96696 21.188 9.245 21.4594 9.47449C21.8886 9.83746 21.7851 10.2865 21.7851 10.9761V16.4992C21.7851 16.8264 21.8538 18.0309 21.6952 18.2323C21.5263 18.2471 20.8643 17.8394 20.4639 17.6767C18.9585 17.0652 17.3091 17.282 15.8404 17.6975C13.1101 18.4703 10.0913 20.2294 7.1692 19.1566C5.49953 18.5437 5.72304 18.2653 5.72304 17.0043V11.5823C5.72288 11.1483 5.64149 10.2028 5.81741 9.90172Z" fill="white"/>
<path fill-rule="evenodd" clip-rule="evenodd" d="M87.0375 15.034C86.9798 14.5017 87.0221 13.5961 87.029 13.0302C87.0362 12.4328 87.2129 11.8932 87.458 11.479C88.6142 9.52549 91.4364 9.54023 92.5621 11.496C92.8253 11.9532 92.9807 12.4241 92.9863 13.064C92.9907 13.5669 93.0407 14.5896 92.9738 15.0422L87.0375 15.034ZM87.0357 18.0867L92.9852 18.0907L92.9883 21.1179L95.9753 21.1097C96.019 19.4484 95.9783 17.7292 95.9783 16.0612C95.9783 14.5775 96.1103 12.6294 95.721 11.3011C95.045 8.99409 92.908 6.96673 89.9855 6.97218C87.0839 6.97763 84.9286 9.03752 84.2834 11.3355C83.909 12.6693 84.0351 14.5898 84.0351 16.0949C84.0351 17.7599 84.012 19.4413 84.0367 21.1179L87.0283 21.1118L87.0357 18.0867Z" fill="#2086C9"/>
<path fill-rule="evenodd" clip-rule="evenodd" d="M52.8002 15.0327C52.7478 14.5021 52.7792 13.586 52.7938 13.0291C52.8354 11.4378 54.0368 10.017 55.78 10.0184C57.5181 10.02 58.7324 11.4474 58.7587 13.0627C58.7684 13.6674 58.7954 14.4376 58.7555 15.0419L52.8002 15.0327ZM52.7981 18.0865L58.7601 18.1013L58.7649 21.1185L61.741 21.1155C61.7949 19.4648 61.7438 17.7223 61.7438 16.0614C61.7438 14.5707 61.8771 12.6296 61.4874 11.2944C60.8254 9.02581 58.6975 6.97249 55.7802 6.97217C52.8622 6.97185 50.7378 9.00017 50.0583 11.3158C49.6763 12.6172 49.8089 14.6201 49.8089 16.095C49.8089 16.937 49.8089 17.7788 49.8089 18.6208C49.8089 19.4168 49.7672 20.3318 49.8161 21.1182L52.7922 21.1147L52.7981 18.0865Z" fill="#2086C9"/>
<path fill-rule="evenodd" clip-rule="evenodd" d="M35.6983 10.0188C36.3616 9.99336 37.5298 9.97509 38.1609 10.0494C41.7359 10.4709 42.9437 15.2336 39.9387 17.3563C38.7447 18.1998 37.1941 18.1485 35.6856 18.064L35.6983 10.0188ZM32.7074 21.1162C34.289 21.1364 35.8821 21.1176 37.4649 21.1181C39.0349 21.1186 40.111 20.7731 41.2269 20.1276C45.5861 17.6063 45.9355 10.7972 41.2216 7.95894C40.1811 7.33236 38.9535 6.97211 37.4649 6.97227C35.885 6.97243 34.2893 6.94999 32.7021 6.97227L32.7074 21.1162Z" fill="#2086C9"/>
<path fill-rule="evenodd" clip-rule="evenodd" d="M69.9191 21.1163C69.9212 18.7689 69.9222 16.4216 69.9222 14.0744C69.9222 12.7475 69.8887 12.0559 70.5592 11.1778C71.0016 10.5987 71.8182 10.0109 72.9167 10.0187C74.0498 10.0269 74.8126 10.6144 75.2707 11.2144C75.9297 12.078 75.8784 12.8313 75.8784 14.1079L75.881 21.1183L78.8698 21.1066C78.9042 19.4381 78.8718 17.7336 78.8718 16.0611C78.8718 14.5843 79.0035 12.6238 78.6156 11.3016C77.939 8.99504 75.8097 6.96848 72.8829 6.97168C69.9714 6.97489 67.8423 9.02757 67.1781 11.3299C66.7983 12.6461 66.9289 14.617 66.9289 16.0947L66.9316 21.1172L69.9191 21.1163Z" fill="#2086C9"/>
</svg>
