<svg width="95" height="28" viewBox="0 0 95 28" fill="none" xmlns="http://www.w3.org/2000/svg">
<path d="M30.0047 20H28.5274L32.8001 8.36364H34.2547L38.5274 20H37.0501L33.5729 10.2045H33.4819L30.0047 20ZM30.5501 15.4545H36.5047V16.7045H30.5501V15.4545ZM43.4375 20.1818C42.7103 20.1818 42.0682 19.9981 41.5114 19.6307C40.9546 19.2595 40.519 18.7367 40.2046 18.0625C39.8902 17.3845 39.733 16.5833 39.733 15.6591C39.733 14.7424 39.8902 13.947 40.2046 13.2727C40.519 12.5985 40.9565 12.0777 41.5171 11.7102C42.0777 11.3428 42.7254 11.1591 43.4603 11.1591C44.0284 11.1591 44.4773 11.2538 44.8069 11.4432C45.1402 11.6288 45.394 11.8409 45.5682 12.0795C45.7463 12.3144 45.8845 12.5076 45.983 12.6591H46.0966V8.36364H47.4375V20H46.1421V18.6591H45.983C45.8845 18.8182 45.7444 19.0189 45.5625 19.2614C45.3807 19.5 45.1213 19.714 44.7841 19.9034C44.447 20.089 43.9981 20.1818 43.4375 20.1818ZM43.6194 18.9773C44.1572 18.9773 44.6118 18.8371 44.983 18.5568C45.3542 18.2727 45.6364 17.8807 45.8296 17.3807C46.0228 16.8769 46.1194 16.2955 46.1194 15.6364C46.1194 14.9848 46.0247 14.4148 45.8353 13.9261C45.6459 13.4337 45.3656 13.0511 44.9944 12.7784C44.6231 12.5019 44.1648 12.3636 43.6194 12.3636C43.0512 12.3636 42.5777 12.5095 42.1989 12.8011C41.8239 13.089 41.5417 13.4811 41.3523 13.9773C41.1667 14.4697 41.0739 15.0227 41.0739 15.6364C41.0739 16.2576 41.1686 16.822 41.358 17.3295C41.5512 17.8333 41.8353 18.2348 42.2103 18.5341C42.5891 18.8295 43.0588 18.9773 43.6194 18.9773ZM53.359 20.1818C52.6318 20.1818 51.9897 19.9981 51.4329 19.6307C50.8761 19.2595 50.4405 18.7367 50.1261 18.0625C49.8117 17.3845 49.6545 16.5833 49.6545 15.6591C49.6545 14.7424 49.8117 13.947 50.1261 13.2727C50.4405 12.5985 50.878 12.0777 51.4386 11.7102C51.9992 11.3428 52.6469 11.1591 53.3818 11.1591C53.9499 11.1591 54.3988 11.2538 54.7284 11.4432C55.0617 11.6288 55.3155 11.8409 55.4897 12.0795C55.6678 12.3144 55.806 12.5076 55.9045 12.6591H56.0181V8.36364H57.359V20H56.0636V18.6591H55.9045C55.806 18.8182 55.6659 19.0189 55.484 19.2614C55.3022 19.5 55.0428 19.714 54.7056 19.9034C54.3685 20.089 53.9196 20.1818 53.359 20.1818ZM53.5409 18.9773C54.0787 18.9773 54.5333 18.8371 54.9045 18.5568C55.2757 18.2727 55.5579 17.8807 55.7511 17.3807C55.9443 16.8769 56.0409 16.2955 56.0409 15.6364C56.0409 14.9848 55.9462 14.4148 55.7568 13.9261C55.5674 13.4337 55.2871 13.0511 54.9159 12.7784C54.5446 12.5019 54.0863 12.3636 53.5409 12.3636C52.9727 12.3636 52.4992 12.5095 52.1204 12.8011C51.7454 13.089 51.4632 13.4811 51.2738 13.9773C51.0882 14.4697 50.9954 15.0227 50.9954 15.6364C50.9954 16.2576 51.0901 16.822 51.2795 17.3295C51.4727 17.8333 51.7568 18.2348 52.1318 18.5341C52.5106 18.8295 52.9803 18.9773 53.5409 18.9773ZM65.81 14.75V20H64.4691V11.2727H65.7645V12.6364H65.8782C66.0827 12.1932 66.3933 11.8371 66.81 11.5682C67.2267 11.2955 67.7645 11.1591 68.4236 11.1591C69.0145 11.1591 69.5316 11.2803 69.9748 11.5227C70.418 11.7614 70.7626 12.125 71.0089 12.6136C71.2551 13.0985 71.3782 13.7121 71.3782 14.4545V20H70.0373V14.5455C70.0373 13.8598 69.8592 13.3258 69.5032 12.9432C69.1471 12.5568 68.6585 12.3636 68.0373 12.3636C67.6092 12.3636 67.2267 12.4564 66.8895 12.642C66.5562 12.8277 66.293 13.0985 66.0998 13.4545C65.9066 13.8106 65.81 14.2424 65.81 14.75ZM77.4715 20.1818C76.6306 20.1818 75.9053 19.9962 75.2954 19.625C74.6894 19.25 74.2215 18.7273 73.892 18.0568C73.5662 17.3826 73.4034 16.5985 73.4034 15.7045C73.4034 14.8106 73.5662 14.0227 73.892 13.3409C74.2215 12.6553 74.6799 12.1212 75.267 11.7386C75.8579 11.3523 76.5473 11.1591 77.3352 11.1591C77.7897 11.1591 78.2386 11.2348 78.6818 11.3864C79.125 11.5379 79.5284 11.7841 79.892 12.125C80.2556 12.4621 80.5454 12.9091 80.7613 13.4659C80.9772 14.0227 81.0852 14.7083 81.0852 15.5227V16.0909H74.3579V14.9318H79.7215C79.7215 14.4394 79.6231 14 79.4261 13.6136C79.2329 13.2273 78.9564 12.9223 78.5965 12.6989C78.2405 12.4754 77.82 12.3636 77.3352 12.3636C76.8011 12.3636 76.339 12.4962 75.9488 12.7614C75.5625 13.0227 75.2651 13.3636 75.0568 13.7841C74.8484 14.2045 74.7443 14.6553 74.7443 15.1364V15.9091C74.7443 16.5682 74.8579 17.1269 75.0852 17.5852C75.3162 18.0398 75.6363 18.3864 76.0454 18.625C76.4545 18.8598 76.9299 18.9773 77.4715 18.9773C77.8238 18.9773 78.142 18.928 78.4261 18.8295C78.714 18.7273 78.9621 18.5758 79.1704 18.375C79.3787 18.1705 79.5397 17.9167 79.6534 17.6136L80.9488 17.9773C80.8125 18.4167 80.5833 18.803 80.2613 19.1364C79.9394 19.4659 79.5416 19.7235 79.0681 19.9091C78.5947 20.0909 78.0625 20.1818 77.4715 20.1818ZM85.0862 20L82.4271 11.2727H83.8362L85.7226 17.9545H85.8135L87.6771 11.2727H89.109L90.9499 17.9318H91.0408L92.9271 11.2727H94.3362L91.6771 20H90.359L88.4499 13.2955H88.3135L86.4044 20H85.0862Z" fill="black" fill-opacity="0.28"/>
<path d="M7.03125 14.1576H10.3944M10.3944 14.1576H13.7576M10.3944 14.1576V10.7944M10.3944 14.1576V17.5207" stroke="#7D7D7D" stroke-opacity="0.49" stroke-width="2" stroke-linecap="round" stroke-linejoin="round"/>
<path d="M10.3947 22.5658C15.0382 22.5658 18.8026 18.8014 18.8026 14.1579C18.8026 9.51434 15.0382 5.75 10.3947 5.75C5.75116 5.75 1.98682 9.51434 1.98682 14.1579C1.98682 18.8014 5.75116 22.5658 10.3947 22.5658Z" stroke="#7D7D7D" stroke-opacity="0.49" stroke-width="2" stroke-linecap="round" stroke-linejoin="round"/>
</svg>
