<svg width="101" height="30" viewBox="0 0 101 30" fill="none" xmlns="http://www.w3.org/2000/svg">
<path d="M0.10482 20.6157C0.10482 19.1271 0.0792598 17.8768 0 16.7613H2.76403L2.89518 18.6774H2.97237C3.59742 17.6659 4.74449 16.4678 6.88295 16.4678C8.55232 16.4678 9.85481 17.4271 10.4016 18.8607H10.4551C10.8981 18.1433 11.4181 17.6117 12.0175 17.2407C12.7216 16.7358 13.5317 16.4678 14.5727 16.4678C16.6848 16.4678 18.8212 17.9297 18.8212 22.08V29.7076H15.6934V22.5565C15.6934 20.405 14.9638 19.1271 13.4254 19.1271C12.331 19.1271 11.5219 19.9254 11.1836 20.8563C11.1054 21.1725 11.0272 21.5737 11.0272 21.9439V29.7079H7.89862V22.209C7.89862 20.405 7.19561 19.1271 5.70826 19.1271C4.51136 19.1271 3.70327 20.0846 3.41385 20.9877C3.28451 21.3062 3.23184 21.6796 3.23184 22.0503V29.7079H0.10482V20.6157Z" fill="#003D79"/>
<path d="M31.0084 26.5983C31.0084 27.7667 31.0601 28.9088 31.1894 29.7081H28.2955L28.0877 28.2735H28.0087C27.2259 29.2848 25.8966 29.9998 24.2572 29.9998C21.7012 29.9998 20.2676 28.1145 20.2676 26.146C20.2676 22.8743 23.1065 21.2285 27.8019 21.2546V21.0421C27.8019 20.1912 27.4616 18.7819 25.2194 18.7819C23.9672 18.7819 22.6647 19.1816 21.8048 19.7387L21.1795 17.6122C22.1179 17.0264 23.7602 16.4683 25.7665 16.4683C29.8348 16.4683 31.0087 19.1023 31.0087 21.9181V26.5983H31.0084ZM27.8791 23.3829C25.6103 23.3289 23.4478 23.8334 23.4478 25.8006C23.4478 27.0764 24.2574 27.6622 25.2728 27.6622C26.5479 27.6622 27.4882 26.8089 27.7745 25.8793C27.8517 25.6392 27.8788 25.3754 27.8788 25.1624V23.3829H27.8791Z" fill="#003D79"/>
<path d="M33.2231 20.6159C33.2231 19.1273 33.196 17.877 33.1211 16.7616H35.9339L36.0899 18.7048H36.1694C36.7162 17.693 38.0985 16.4683 40.2096 16.4683C42.4263 16.4683 44.7189 17.9302 44.7189 22.0263V29.7081H41.5133V22.3993C41.5133 20.5372 40.8341 19.1271 39.0886 19.1271C37.8127 19.1271 36.924 20.0578 36.5866 21.0421C36.4828 21.3341 36.4562 21.733 36.4562 22.1037V29.7081H33.2236V20.6159H33.2231Z" fill="#003D79"/>
<path d="M58.6188 11.561V26.0654C58.6188 27.3941 58.6727 28.8313 58.7233 29.7078H55.8576L55.7269 27.6619H55.6738C54.9178 29.0967 53.3794 29.9992 51.5298 29.9992C48.5047 29.9992 46.1086 27.3681 46.1086 23.3826C46.0807 19.048 48.7392 16.4677 51.7898 16.4677C53.5356 16.4677 54.7874 17.2122 55.3606 18.1729H55.4138V11.561H58.6188ZM55.414 22.1573C55.414 21.893 55.388 21.5736 55.3345 21.3064C55.0482 20.0332 54.0331 18.9954 52.5723 18.9954C50.5128 18.9954 49.3645 20.8565 49.3645 23.2755C49.3645 25.6394 50.5128 27.3686 52.5473 27.3686C53.8479 27.3686 54.9963 26.4642 55.3084 25.0549C55.388 24.7635 55.4138 24.4431 55.4138 24.0982V22.1573H55.414Z" fill="#003D79"/>
<path d="M60.8872 29.7078V16.7612H64.1214V29.7078H60.8872Z" fill="#003D79"/>
<path d="M66.3872 20.9364C66.3872 19.1817 66.3611 17.9303 66.2847 16.7619H69.0743L69.1765 19.2317H69.2826C69.9084 17.4001 71.3927 16.7619 72.7514 16.7619C73.0623 16.7619 73.2451 16.7087 73.5043 16.7619V19.6342C73.2451 19.5805 72.9593 19.5279 72.5676 19.5279C71.0279 19.5279 69.9851 20.5375 69.6993 21.9977C69.6489 22.291 69.5955 22.6382 69.5955 23.0107V29.7085H66.3877V20.9364H66.3872Z" fill="#003D79"/>
<path d="M74.9917 29.7078V16.7612H78.222V29.7078H74.9917Z" fill="#003D79"/>
<path d="M98.3418 3.0704C96.7422 1.20931 95.0406 2.05127 93.6893 2.73631C93.121 3.02249 89.0158 5.39591 89.0158 5.39591C86.7668 6.34159 85.0153 5.30956 84.3276 4.44101C84.2568 4.34939 84.1951 4.26357 84.1489 4.17958L83.9901 3.89682C83.7443 3.47348 83.4495 2.99432 83.0878 2.52226C82.8942 2.2661 82.6783 2.01019 82.4406 1.76824C80.9026 0.183067 78.4425 -0.925584 74.3313 1.08926C72.3857 2.23951 66.0444 5.93404 66.0444 5.93404C63.663 6.93475 61.8392 5.71579 61.2482 4.82223C61.2219 4.78854 61.1961 4.74825 61.179 4.71456L61.1013 4.57897L60.6991 3.90946C60.5269 3.63276 60.3364 3.34816 60.1169 3.05619C59.9215 2.80134 59.7038 2.54754 59.4679 2.30322C57.9392 0.728309 55.4933 -0.378236 51.4187 1.59817C48.9544 3.03249 43.224 6.3745 43.224 6.3745C43.2227 6.37635 43.2227 6.37635 43.2222 6.37635C40.864 7.75091 39.0273 8.82006 39.0273 8.82006L41.1976 11.5376C42.1105 12.4251 43.8276 13.8805 46.4834 12.6533C46.4834 12.6533 53.8133 8.32484 53.8417 8.31247C60.1084 4.80539 63.2016 8.15635 64.5673 10.3897C64.6151 10.4595 64.6543 10.5353 64.6962 10.6032L64.6998 10.6064C64.7158 10.6335 64.7274 10.6588 64.7414 10.6843L64.897 10.9426C65.5616 11.9723 66.6136 12.6373 67.8653 12.6067C68.5559 12.5925 69.0245 12.3624 69.7071 11.9762L76.7989 7.78144C76.8036 7.77908 76.8069 7.77671 76.8141 7.77486C83.1585 4.22539 86.3031 7.79566 87.6462 10.029C87.7505 10.2223 87.87 10.4063 87.9906 10.5782C88.6554 11.4978 89.5729 12.0999 90.7375 12.071C91.5064 12.0549 92.3692 11.5842 92.4967 11.4978L101 6.49403C101 6.49403 100.13 5.15607 98.3418 3.0704Z" fill="url(#paint0_linear_65_2493)"/>
<defs>
<linearGradient id="paint0_linear_65_2493" x1="44.2218" y1="19.6209" x2="110.877" y2="-10.5659" gradientUnits="userSpaceOnUse">
<stop stop-color="#FDB913"/>
<stop offset="0.2247" stop-color="#FFCB05"/>
<stop offset="0.3933" stop-color="#FAA61A"/>
<stop offset="0.5281" stop-color="#FFCB05"/>
<stop offset="0.6461" stop-color="#FAA61A"/>
<stop offset="0.6683" stop-color="#FCB415"/>
<stop offset="0.6975" stop-color="#FFC10E"/>
<stop offset="0.7285" stop-color="#FFC907"/>
<stop offset="0.764" stop-color="#FFCB05"/>
<stop offset="0.7974" stop-color="#FFCB05"/>
<stop offset="1" stop-color="#FFCB05"/>
</linearGradient>
</defs>
</svg>
