<svg width="116" height="29" viewBox="0 0 116 29" fill="none" xmlns="http://www.w3.org/2000/svg">
<rect width="116" height="29" fill="#F5F5F5"/>
<g filter="url(#filter0_d_0_1)">
<rect width="1464" height="1977" transform="translate(-676 -661)" fill="#F2F4F4"/>
<g filter="url(#filter1_d_0_1)">
<rect x="-91" y="-136" width="756" height="335" rx="28" fill="white"/>
</g>
<g filter="url(#filter2_d_0_1)">
<rect x="-51" y="-20" width="216" height="68" rx="8" fill="url(#paint0_linear_0_1)"/>
</g>
<path fill-rule="evenodd" clip-rule="evenodd" d="M42.9048 3.33008H36.5104C36.0729 3.33008 35.7007 3.6481 35.6325 4.07992L33.0463 20.4771C32.9949 20.8007 33.2454 21.0923 33.5736 21.0923H36.6264C37.0639 21.0923 37.4361 20.7743 37.5043 20.3416L38.2019 15.9191C38.2691 15.486 38.6422 15.1684 39.0789 15.1684H41.1031C45.3153 15.1684 47.7462 13.13 48.3814 9.09088C48.6674 7.32378 48.3935 5.93529 47.5657 4.96261C46.6571 3.89517 45.0449 3.33008 42.9048 3.33008ZM43.6426 9.31891C43.293 11.6135 41.5398 11.6135 39.8446 11.6135H38.8797L39.5567 7.32811C39.5969 7.06936 39.8212 6.87855 40.0831 6.87855H40.5253C41.68 6.87855 42.7694 6.87855 43.3323 7.53666C43.6677 7.92954 43.7706 8.51281 43.6426 9.31891ZM62.0192 9.24535H58.9571C58.6962 9.24535 58.4708 9.43617 58.4305 9.69534L58.2951 10.5516L58.0809 10.2414C57.418 9.2791 55.94 8.95761 54.4645 8.95761C51.0805 8.95761 48.1905 11.5204 47.6276 15.1156C47.3351 16.9087 47.7509 18.6234 48.7682 19.8194C49.7015 20.9188 51.0368 21.377 52.6252 21.377C55.3515 21.377 56.8638 19.6238 56.8638 19.6238L56.727 20.4749C56.6756 20.8003 56.9261 21.0919 57.2523 21.0919H60.0107C60.4495 21.0919 60.8194 20.7739 60.8886 20.3412L62.5437 9.86063C62.596 9.53828 62.3464 9.24535 62.0192 9.24535ZM57.7508 15.2052C57.4553 16.9545 56.0668 18.1289 54.2962 18.1289C53.407 18.1289 52.6961 17.8437 52.2401 17.3033C51.7875 16.7668 51.6153 16.0026 51.7594 15.152C52.0354 13.4173 53.4473 12.2049 55.191 12.2049C56.0603 12.2049 56.7673 12.4935 57.2329 13.0387C57.6993 13.5895 57.8845 14.358 57.7508 15.2052ZM75.2504 9.24492H78.3277C78.7586 9.24492 79.01 9.72823 78.7651 10.0817L68.5308 24.8546C68.365 25.0938 68.092 25.2362 67.8004 25.2362H64.727C64.2943 25.2362 64.0416 24.749 64.2922 24.3946L67.4789 19.8964L64.0897 9.94976C63.9724 9.60405 64.2277 9.24492 64.5955 9.24492H67.6191C68.012 9.24492 68.3586 9.5028 68.4719 9.87881L70.2706 15.8862L74.5148 9.63477C74.681 9.39073 74.957 9.24492 75.2504 9.24492Z" fill="#253B80"/>
<path fill-rule="evenodd" clip-rule="evenodd" d="M108.614 20.4769L111.238 3.77996C111.278 3.52078 111.503 3.32997 111.764 3.3291H114.718C115.044 3.3291 115.295 3.6216 115.243 3.94525L112.656 20.3415C112.588 20.7742 112.216 21.0922 111.778 21.0922H109.139C108.813 21.0922 108.562 20.8006 108.614 20.4769ZM88.5159 3.32997H82.1204C81.6838 3.32997 81.3117 3.64799 81.2433 4.07981L78.6571 20.4769C78.6056 20.8006 78.8562 21.0922 79.1828 21.0922H82.4643C82.7694 21.0922 83.0303 20.8698 83.0779 20.5669L83.8117 15.919C83.8792 15.4859 84.2522 15.1683 84.6888 15.1683H86.712C90.9251 15.1683 93.3555 13.1299 93.9911 9.09077C94.278 7.32367 94.0024 5.93518 93.1751 4.9625C92.2669 3.89506 90.656 3.32997 88.5159 3.32997ZM89.2536 9.3188C88.9049 11.6133 87.1516 11.6133 85.4555 11.6133H84.4915L85.1695 7.328C85.2097 7.06925 85.4321 6.87844 85.6948 6.87844H86.137C87.291 6.87844 88.3813 6.87844 88.9438 7.53655C89.2796 7.92944 89.3817 8.5127 89.2536 9.3188ZM107.629 9.24524H104.569C104.306 9.24524 104.082 9.43606 104.043 9.69523L103.907 10.5515L103.692 10.2413C103.03 9.27899 101.552 8.9575 100.077 8.9575C96.6928 8.9575 93.8038 11.5203 93.2409 15.1155C92.9492 16.9086 93.3633 18.6233 94.3806 19.8193C95.3156 20.9187 96.6491 21.3769 98.2375 21.3769C100.964 21.3769 102.476 19.6237 102.476 19.6237L102.339 20.4748C102.288 20.8002 102.538 21.0918 102.867 21.0918H105.624C106.061 21.0918 106.433 20.7738 106.501 20.3411L108.157 9.86052C108.208 9.53817 107.957 9.24524 107.629 9.24524ZM103.361 15.2051C103.067 16.9544 101.677 18.1288 99.9055 18.1288C99.0181 18.1288 98.3059 17.8436 97.8494 17.3032C97.3968 16.7667 97.2268 16.0025 97.3691 15.1519C97.6465 13.4172 99.0566 12.2048 100.8 12.2048C101.67 12.2048 102.377 12.4934 102.843 13.0386C103.311 13.5894 103.496 14.3579 103.361 15.2051Z" fill="#179BD7"/>
<path d="M6.97693 27.1477L7.45455 24.1143L6.39076 24.0896H1.31104L4.84122 1.70566C4.85199 1.63808 4.88774 1.57507 4.93979 1.53033C4.99183 1.48559 5.0586 1.46094 5.12799 1.46094H13.6932C16.5368 1.46094 18.499 2.05266 19.5237 3.22056C20.0039 3.76846 20.3099 4.34099 20.4579 4.97106C20.6129 5.6322 20.6158 6.42206 20.4642 7.38543L20.4531 7.45575V8.07302L20.9336 8.34516C21.3382 8.55973 21.6594 8.80537 21.9059 9.08662C22.317 9.55506 22.5828 10.1504 22.695 10.8563C22.811 11.5822 22.7726 12.4461 22.5828 13.4241C22.3636 14.5491 22.0092 15.5289 21.5308 16.3306C21.0906 17.0694 20.5299 17.6819 19.8643 18.1569C19.2287 18.608 18.4735 18.9505 17.6198 19.1697C16.7923 19.385 15.8492 19.4938 14.8146 19.4938H14.148C13.6714 19.4938 13.2082 19.6655 12.845 19.9733C12.4806 20.2874 12.2393 20.7164 12.1655 21.1858L12.1153 21.4589L11.2715 26.8052L11.2331 27.0016C11.2231 27.0639 11.2058 27.0949 11.1803 27.1159C11.1574 27.1348 11.1246 27.1477 11.0925 27.1477H6.97693Z" fill="#253B80"/>
<path d="M21.389 7.52686C21.3635 7.6903 21.3343 7.8574 21.3015 8.02907C20.1717 13.8285 16.3074 15.8319 11.3718 15.8319H8.85884C8.25532 15.8319 7.74669 16.2702 7.65259 16.8656L6.3659 25.0256L6.00158 27.3384C5.94033 27.7293 6.24183 28.0818 6.63612 28.0818H11.0934C11.6212 28.0818 12.0694 27.6983 12.1524 27.1778L12.1963 26.9513L13.0357 21.6258L13.0895 21.3337C13.1716 20.8114 13.6208 20.4279 14.1486 20.4279H14.8152C19.1334 20.4279 22.514 18.6746 23.5021 13.6011C23.9148 11.4817 23.7011 9.71202 22.6089 8.46739C22.2785 8.09208 21.8685 7.7807 21.389 7.52686Z" fill="#179BD7"/>
<path d="M20.2062 7.0568C20.0338 7.00657 19.8556 6.96091 19.6729 6.91982C19.4894 6.87966 19.3012 6.84404 19.1078 6.813C18.4301 6.70341 17.6878 6.65137 16.8924 6.65137H10.179C10.0137 6.65137 9.85674 6.6888 9.71611 6.75638C9.40647 6.90521 9.17647 7.19835 9.12074 7.5572L7.69237 16.6028L7.65137 16.8667C7.74547 16.2714 8.2541 15.833 8.85762 15.833H11.3705C16.3062 15.833 20.1708 13.8287 21.3003 8.03021C21.3339 7.85854 21.3623 7.69144 21.3878 7.528C21.1021 7.37641 20.7924 7.24674 20.4591 7.13623C20.3771 7.10885 20.2922 7.08238 20.2062 7.0568Z" fill="#222D65"/>
<path d="M9.12116 7.55668C9.17689 7.1978 9.40715 6.90469 9.71653 6.75675C9.85821 6.68917 10.0143 6.65174 10.1794 6.65174H16.8931C17.6885 6.65174 18.4308 6.70379 19.1082 6.81337C19.3019 6.84442 19.4901 6.88003 19.6736 6.9202C19.8563 6.96131 20.0342 7.00697 20.2069 7.05717C20.2926 7.08275 20.3775 7.10922 20.4606 7.13572C20.7939 7.24619 21.1035 7.37678 21.3893 7.52745C21.7255 5.38429 21.3866 3.92509 20.228 2.60376C18.9505 1.14913 16.6447 0.526367 13.6944 0.526367H5.12888C4.52615 0.526367 4.01226 0.964656 3.91894 1.56095L0.351439 24.175C0.280993 24.6224 0.626126 25.0262 1.07719 25.0262H6.36536L7.69306 16.6023L9.12116 7.55668Z" fill="#253B80"/>
</g>
<defs>
<filter id="filter0_d_0_1" x="-680" y="-661" width="1472" height="1985" filterUnits="userSpaceOnUse" color-interpolation-filters="sRGB">
<feFlood flood-opacity="0" result="BackgroundImageFix"/>
<feColorMatrix in="SourceAlpha" type="matrix" values="0 0 0 0 0 0 0 0 0 0 0 0 0 0 0 0 0 0 127 0" result="hardAlpha"/>
<feOffset dy="4"/>
<feGaussianBlur stdDeviation="2"/>
<feComposite in2="hardAlpha" operator="out"/>
<feColorMatrix type="matrix" values="0 0 0 0 0 0 0 0 0 0 0 0 0 0 0 0 0 0 0.25 0"/>
<feBlend mode="normal" in2="BackgroundImageFix" result="effect1_dropShadow_0_1"/>
<feBlend mode="normal" in="SourceGraphic" in2="effect1_dropShadow_0_1" result="shape"/>
</filter>
<filter id="filter1_d_0_1" x="-95" y="-136" width="764" height="343" filterUnits="userSpaceOnUse" color-interpolation-filters="sRGB">
<feFlood flood-opacity="0" result="BackgroundImageFix"/>
<feColorMatrix in="SourceAlpha" type="matrix" values="0 0 0 0 0 0 0 0 0 0 0 0 0 0 0 0 0 0 127 0" result="hardAlpha"/>
<feOffset dy="4"/>
<feGaussianBlur stdDeviation="2"/>
<feComposite in2="hardAlpha" operator="out"/>
<feColorMatrix type="matrix" values="0 0 0 0 0 0 0 0 0 0 0 0 0 0 0 0 0 0 0.25 0"/>
<feBlend mode="normal" in2="BackgroundImageFix" result="effect1_dropShadow_0_1"/>
<feBlend mode="normal" in="SourceGraphic" in2="effect1_dropShadow_0_1" result="shape"/>
</filter>
<filter id="filter2_d_0_1" x="-55" y="-20" width="224" height="76" filterUnits="userSpaceOnUse" color-interpolation-filters="sRGB">
<feFlood flood-opacity="0" result="BackgroundImageFix"/>
<feColorMatrix in="SourceAlpha" type="matrix" values="0 0 0 0 0 0 0 0 0 0 0 0 0 0 0 0 0 0 127 0" result="hardAlpha"/>
<feOffset dy="4"/>
<feGaussianBlur stdDeviation="2"/>
<feComposite in2="hardAlpha" operator="out"/>
<feColorMatrix type="matrix" values="0 0 0 0 0 0 0 0 0 0 0 0 0 0 0 0 0 0 0.25 0"/>
<feBlend mode="normal" in2="BackgroundImageFix" result="effect1_dropShadow_0_1"/>
<feBlend mode="normal" in="SourceGraphic" in2="effect1_dropShadow_0_1" result="shape"/>
</filter>
<linearGradient id="paint0_linear_0_1" x1="57.4675" y1="-20" x2="57.4675" y2="42.411" gradientUnits="userSpaceOnUse">
<stop stop-color="#E4ECFF"/>
<stop offset="1" stop-color="#EBEBEB"/>
</linearGradient>
</defs>
</svg>
