<svg width="80" height="20" viewBox="0 0 80 20" fill="none" xmlns="http://www.w3.org/2000/svg">
<path fill-rule="evenodd" clip-rule="evenodd" d="M29.6325 1.95166H25.1806C24.876 1.95166 24.6169 2.17307 24.5694 2.47371L22.7688 13.8896C22.733 14.1149 22.9075 14.3179 23.136 14.3179H25.2613C25.566 14.3179 25.8251 14.0965 25.8726 13.7953L26.3582 10.7163C26.4051 10.4147 26.6648 10.1936 26.9688 10.1936H28.3781C31.3107 10.1936 33.0031 8.77447 33.4453 5.96239C33.6444 4.73212 33.4537 3.76543 32.8774 3.08824C32.2448 2.34508 31.1224 1.95166 29.6325 1.95166ZM30.1461 6.12114C29.9027 7.71862 28.6821 7.71862 27.5019 7.71862H26.8301L27.3014 4.73513C27.3294 4.55499 27.4856 4.42214 27.6679 4.42214H27.9758C28.7797 4.42214 29.5382 4.42214 29.9301 4.88033C30.1636 5.15385 30.2352 5.55993 30.1461 6.12114ZM42.9401 6.06993H40.8082C40.6266 6.06993 40.4696 6.20278 40.4416 6.38322L40.3473 6.97938L40.1982 6.76339C39.7367 6.09343 38.7077 5.8696 37.6804 5.8696C35.3244 5.8696 33.3124 7.65386 32.9205 10.1569C32.7169 11.4052 33.0064 12.599 33.7146 13.4317C34.3644 14.1971 35.294 14.5161 36.3999 14.5161C38.298 14.5161 39.3508 13.2955 39.3508 13.2955L39.2556 13.888C39.2198 14.1146 39.3942 14.3176 39.6213 14.3176H41.5417C41.8472 14.3176 42.1048 14.0962 42.153 13.795L43.3052 6.4983C43.3417 6.27387 43.1678 6.06993 42.9401 6.06993ZM39.9684 10.2192C39.7626 11.4371 38.7959 12.2547 37.5632 12.2547C36.9442 12.2547 36.4493 12.0562 36.1317 11.6799C35.8167 11.3064 35.6968 10.7744 35.7971 10.1822C35.9893 8.9745 36.9722 8.13042 38.1862 8.13042C38.7914 8.13042 39.2836 8.33135 39.6078 8.71091C39.9325 9.09439 40.0614 9.6294 39.9684 10.2192ZM52.1518 6.06963H54.2942C54.5942 6.06963 54.7693 6.40612 54.5988 6.65223L47.4735 16.9372C47.3581 17.1038 47.168 17.2029 46.965 17.2029H44.8253C44.524 17.2029 44.3481 16.8637 44.5225 16.617L46.7412 13.4853L44.3815 6.56035C44.2999 6.31966 44.4776 6.06963 44.7337 6.06963H46.8388C47.1123 6.06963 47.3536 6.24917 47.4325 6.51095L48.6848 10.6934L51.6397 6.34105C51.7553 6.17115 51.9475 6.06963 52.1518 6.06963Z" fill="#253B80"/>
<path fill-rule="evenodd" clip-rule="evenodd" d="M75.3799 13.8897L77.2069 2.26507C77.2349 2.08462 77.3913 1.95177 77.5729 1.95117H79.6298C79.8569 1.95117 80.0313 2.15481 79.9955 2.38014L78.1938 13.7954C78.1468 14.0966 77.8877 14.318 77.5825 14.318H75.7456C75.5184 14.318 75.344 14.115 75.3799 13.8897ZM61.3875 1.95178H56.9349C56.6309 1.95178 56.3718 2.17319 56.3242 2.47383L54.5237 13.8897C54.4879 14.115 54.6623 14.318 54.8897 14.318H57.1744C57.3867 14.318 57.5684 14.1632 57.6015 13.9523L58.1124 10.7164C58.1594 10.4148 58.4191 10.1937 58.723 10.1937H60.1316C63.0648 10.1937 64.7569 8.77459 65.1994 5.9625C65.3991 4.73223 65.2073 3.76555 64.6313 3.08836C63.999 2.34519 62.8775 1.95178 61.3875 1.95178ZM61.9011 6.12126C61.6583 7.71874 60.4377 7.71874 59.2568 7.71874H58.5857L59.0577 4.73524C59.0857 4.5551 59.2406 4.42225 59.4234 4.42225H59.7313C60.5347 4.42225 61.2938 4.42225 61.6854 4.88044C61.9192 5.15397 61.9903 5.56004 61.9011 6.12126ZM74.6939 6.07004H72.5636C72.3804 6.07004 72.225 6.20289 72.1976 6.38334L72.1033 6.97949L71.9536 6.7635C71.4921 6.09354 70.4636 5.86972 69.4364 5.86972C67.0804 5.86972 65.069 7.65397 64.6771 10.157C64.474 11.4053 64.7623 12.5991 65.4705 13.4318C66.1215 14.1972 67.0499 14.5163 68.1558 14.5163C70.0539 14.5163 71.1065 13.2956 71.1065 13.2956L71.0116 13.8882C70.9757 14.1147 71.1501 14.3177 71.3788 14.3177H73.2983C73.6022 14.3177 73.8613 14.0963 73.9089 13.7951L75.0618 6.49841C75.097 6.27399 74.9226 6.07004 74.6939 6.07004ZM71.7225 10.2193C71.518 11.4373 70.5501 12.2548 69.3171 12.2548C68.6992 12.2548 68.2034 12.0563 67.8856 11.6801C67.5705 11.3065 67.4521 10.7745 67.5512 10.1823C67.7443 8.97462 68.7261 8.13054 69.9401 8.13054C70.5456 8.13054 71.0375 8.33146 71.3619 8.71103C71.6879 9.09451 71.8168 9.62951 71.7225 10.2193Z" fill="#179BD7"/>
<path d="M4.61897 18.5338L4.95149 16.4219L4.21087 16.4047H0.674316L3.13206 0.820768C3.13957 0.773717 3.16445 0.729851 3.20069 0.698704C3.23692 0.667557 3.28341 0.650391 3.33172 0.650391H9.29491C11.2746 0.650391 12.6408 1.06235 13.3541 1.87546C13.6885 2.25691 13.9015 2.65551 14.0045 3.09417C14.1125 3.55446 14.1145 4.10437 14.0089 4.77508L14.0012 4.82404V5.25379L14.3358 5.44325C14.6174 5.59264 14.841 5.76365 15.0127 5.95947C15.2989 6.2856 15.4839 6.7001 15.5621 7.19152C15.6428 7.69695 15.6161 8.29835 15.4839 8.97924C15.3313 9.76248 15.0846 10.4446 14.7515 11.0028C14.445 11.5171 14.0547 11.9436 13.5913 12.2743C13.1488 12.5883 12.623 12.8268 12.0286 12.9794C11.4525 13.1293 10.7959 13.2051 10.0756 13.2051H9.6115C9.27972 13.2051 8.95726 13.3246 8.70435 13.5389C8.45071 13.7575 8.28271 14.0562 8.23129 14.3831L8.19633 14.5732L7.60889 18.2953L7.58217 18.432C7.57522 18.4754 7.56314 18.497 7.54539 18.5116C7.52947 18.5248 7.50659 18.5338 7.48426 18.5338H4.61897Z" fill="#253B80"/>
<path d="M14.653 4.87354C14.6352 4.98733 14.6149 5.10366 14.592 5.22318C13.8055 9.26078 11.1151 10.6556 7.67886 10.6556H5.92934C5.50917 10.6556 5.15505 10.9607 5.08954 11.3752L4.19373 17.0563L3.94009 18.6666C3.89745 18.9387 4.10736 19.1841 4.38186 19.1841H7.48506C7.85253 19.1841 8.16456 18.9171 8.22238 18.5547L8.25295 18.397L8.83728 14.6893L8.8748 14.486C8.93189 14.1224 9.24464 13.8554 9.61212 13.8554H10.0762C13.0826 13.8554 15.4362 12.6347 16.1241 9.10248C16.4115 7.62692 16.2627 6.39487 15.5023 5.52834C15.2723 5.26705 14.9868 5.05026 14.653 4.87354Z" fill="#179BD7"/>
<path d="M13.8292 4.54643C13.7092 4.51145 13.5851 4.47967 13.4579 4.45106C13.3302 4.4231 13.1991 4.3983 13.0644 4.37669C12.5926 4.3004 12.0758 4.26416 11.5221 4.26416H6.84815C6.73304 4.26416 6.62378 4.29022 6.52588 4.33727C6.3103 4.44089 6.15017 4.64497 6.11137 4.89481L5.11693 11.1925L5.08838 11.3762C5.15389 10.9617 5.50801 10.6565 5.92819 10.6565H7.6777C11.114 10.6565 13.8045 9.26109 14.5909 5.22413C14.6143 5.10461 14.6341 4.98827 14.6518 4.87448C14.4529 4.76894 14.2373 4.67866 14.0053 4.60173C13.9482 4.58266 13.889 4.56423 13.8292 4.54643Z" fill="#222D65"/>
<path d="M6.11194 4.89457C6.15074 4.64472 6.31105 4.44065 6.52644 4.33766C6.62508 4.29061 6.73379 4.26454 6.84871 4.26454H11.5228C12.0766 4.26454 12.5934 4.30078 13.065 4.37707C13.1999 4.39869 13.3309 4.42348 13.4586 4.45145C13.5858 4.48007 13.7097 4.51186 13.83 4.54681C13.8896 4.56462 13.9487 4.58305 14.0066 4.60149C14.2386 4.67841 14.4542 4.76933 14.6531 4.87422C14.8872 3.38214 14.6513 2.36623 13.8446 1.4463C12.9552 0.433573 11.3499 0 9.29584 0H3.33247C2.91284 0 2.55507 0.305141 2.4901 0.720286L0.00637323 16.4644C-0.0426719 16.7759 0.197613 17.057 0.511648 17.057H4.19332L5.11768 11.1922L6.11194 4.89457Z" fill="#253B80"/>
</svg>
