<svg width="47" height="44" viewBox="0 0 47 44" fill="none" xmlns="http://www.w3.org/2000/svg">
<path d="M23.4747 1C11.0623 1 1 10.3626 1 21.9121C1 33.4614 11.0623 42.8241 23.4747 42.8241C35.887 42.8241 45.9494 33.4614 45.9494 21.9121C45.9494 10.3626 35.887 1 23.4747 1Z" stroke="black" stroke-width="2" stroke-linecap="round" stroke-linejoin="round"/>
<path d="M6.104 35.1824C6.104 35.1824 11.1137 29.2314 23.4747 29.2314C35.8358 29.2314 40.8456 35.1824 40.8456 35.1824" stroke="black" stroke-width="2" stroke-linecap="round" stroke-linejoin="round"/>
<path d="M23.4748 21.912C27.1987 21.912 30.2172 19.1033 30.2172 15.6384C30.2172 12.1735 27.1987 9.36475 23.4748 9.36475C19.751 9.36475 16.7324 12.1735 16.7324 15.6384C16.7324 19.1033 19.751 21.912 23.4748 21.912Z" stroke="black" stroke-width="2" stroke-linecap="round" stroke-linejoin="round"/>
</svg>
